# xmcd
#
# Track frame offsets: 
#        150
#        16730
#        35452
#        55264
#        71863
#        89055
#        108632
#        124783
#        141426
#        161017
#
# Disc length: 2357 seconds
#
# Revision: 2
# Processed by: cddbd v1.5.2PL0 Copyright (c) Steve Scherf et al.
# Submitted via: ExactAudioCopyFreeDBPlugin 1.0
#
DISCID=9109330a
DTITLE=Era - The Mass
DYEAR=2003
DGENRE=New Age
TTITLE0=The Mass
TTITLE1=Looking For Something
TTITLE2=Don't Go Away
TTITLE3=Don't You Forget
TTITLE4=If You Shout
TTITLE5=Avemano Orchestral
TTITLE6=Enae Volare
TTITLE7=Sombre Day
TTITLE8=Voxifera
TTITLE9=The Champions
EXTD=YEAR: 2003
EXTT0=
EXTT1=
EXTT2=
EXTT3=
EXTT4=
EXTT5=
EXTT6=
EXTT7=
EXTT8=
EXTT9=
PLAYORDER=
